<svg width="70" height="70" viewBox="0 0 70 70" fill="none" xmlns="http://www.w3.org/2000/svg">
<path d="M0 0H70V70H0V0Z" fill="#1E1C42"/>
<path d="M6.112 47.368L8.48 46.216L9.216 46.664C9.216 47.9653 9.55733 48.8187 10.24 49.224C10.432 49.352 10.624 49.416 10.816 49.416C11.328 49.416 11.8293 49.032 12.32 48.264C13.6 46.2587 14.24 42.4293 14.24 36.776C14.24 33.5973 14.112 30.5573 13.856 27.656C13.6 27.6987 13.1307 27.72 12.448 27.72C11.7867 27.72 11.0613 27.624 10.272 27.432L9.92 26.6L10.752 23.848C11.6907 24.5733 12.9813 24.936 14.624 24.936C16.288 24.936 18.0053 24.648 19.776 24.072C19.8613 24.072 19.904 24.2533 19.904 24.616C19.904 24.9787 19.744 25.2987 19.424 25.576C18.5707 26.088 17.888 26.4507 17.376 26.664C16.9707 36.2427 16.3413 42.5573 15.488 45.608C14.784 48.1467 13.5893 49.9813 11.904 51.112C11.072 51.6667 10.336 51.944 9.696 51.944C9.07733 51.944 8.52267 51.7947 8.032 51.496C6.90133 50.792 6.26133 49.416 6.112 47.368ZM33.7748 24.584L32.7188 27.336C31.6734 26.7813 30.5321 26.504 29.2948 26.504C28.0574 26.504 27.0548 26.728 26.2868 27.176C25.5401 27.624 25.1668 28.328 25.1668 29.288C25.1668 30.4613 26.1481 31.7947 28.1108 33.288C28.9214 33.9067 29.7321 34.5467 30.5428 35.208C31.3534 35.848 32.0468 36.5947 32.6228 37.448C33.1988 38.28 33.4868 39.0693 33.4868 39.816C33.4868 40.5627 33.3588 41.2453 33.1028 41.864C32.8681 42.4613 32.4628 43.08 31.8868 43.72C31.3108 44.36 30.4148 44.8827 29.1988 45.288C27.9828 45.6933 26.6174 45.896 25.1028 45.896C23.5881 45.896 22.2441 45.7147 21.0708 45.352C20.8361 44.9893 20.7188 44.6693 20.7188 44.392C20.7188 44.1147 20.7294 43.976 20.7508 43.976C20.7934 43.976 20.9534 44.0187 21.2308 44.104C22.1054 44.3387 22.9801 44.456 23.8548 44.456C25.6468 44.456 27.0974 44.0933 28.2068 43.368C29.3374 42.6427 29.9028 41.7147 29.9028 40.584C29.9028 39.304 28.9854 37.928 27.1508 36.456C26.3828 35.8373 25.6148 35.2187 24.8468 34.6C23.0121 33.128 22.0948 31.688 22.0948 30.28C22.0948 29.384 22.4681 28.5093 23.2148 27.656C24.8574 25.7573 28.1961 24.456 33.2308 23.752L33.7748 24.584Z" fill="#EEEEEE"/>
<path d="M36.984 27.816L36.6 26.92L37.784 24.616C38.9787 24.4453 40.1733 24.36 41.368 24.36C44.184 24.36 46.52 24.776 48.376 25.608C48.6533 25.8853 48.792 26.312 48.792 26.888C47.1493 29.2773 44.824 31.6027 41.816 33.864C42.2427 33.8213 42.552 33.8 42.744 33.8C44.5147 33.8 45.9653 34.344 47.096 35.432C48.248 36.4987 48.824 37.9707 48.824 39.848C48.824 41.7253 48.0667 43.2613 46.552 44.456C45.0587 45.6507 43.3307 46.248 41.368 46.248C39.4267 46.248 37.6347 45.7893 35.992 44.872C35.992 44.6373 36.056 44.3387 36.184 43.976C36.3333 43.592 36.472 43.4 36.6 43.4C37.8587 44.1253 39.1493 44.488 40.472 44.488C41.816 44.488 42.9573 44.0507 43.896 43.176C44.856 42.3013 45.336 41.2133 45.336 39.912C45.336 38.5893 44.9733 37.5653 44.248 36.84C43.544 36.0933 42.6587 35.72 41.592 35.72C40.5467 35.72 39.48 35.976 38.392 36.488L37.752 35.336C37.7307 35.336 37.72 35.3253 37.72 35.304V35.272C39.3413 33.9067 40.76 32.5733 41.976 31.272C43.2133 29.9493 44.4293 28.3813 45.624 26.568C45.368 26.5467 44.9627 26.536 44.408 26.536C41.2507 26.536 38.776 26.9627 36.984 27.816ZM60.088 23.336C61.7947 23.336 63.2027 24.2427 64.312 26.056C65.4427 27.848 66.008 30.472 66.008 33.928C66.008 37.3627 65.208 40.232 63.608 42.536C62.0293 44.84 60.1093 45.992 57.848 45.992C56.1627 45.992 54.7653 45.0853 53.656 43.272C52.5467 41.4587 51.992 38.8347 51.992 35.4C51.992 31.9653 52.7813 29.096 54.36 26.792C55.9387 24.488 57.848 23.336 60.088 23.336ZM55.608 29C54.4987 30.664 53.944 32.7547 53.944 35.272C53.944 37.7893 54.3493 39.6987 55.16 41C55.9707 42.28 56.9947 42.92 58.232 42.92C59.896 42.92 61.2933 42.12 62.424 40.52C63.5547 38.8987 64.12 36.84 64.12 34.344C64.12 31.8267 63.704 29.8853 62.872 28.52C62.0613 27.1547 61.0373 26.472 59.8 26.472C58.136 26.472 56.7387 27.3147 55.608 29Z" fill="#FFC600"/>
</svg>
